<svg xmlns="http://www.w3.org/2000/svg" width="102" height="31" viewBox="0 0 102 31" fill="none"><g clip-path="url(#clip0_406_3037)"><path d="M63.8586 19.3444C63.0238 19.9882 61.9427 20.4616 60.6152 20.4616C58.5526 20.4616 56.9831 18.9959 56.9831 16.7412C56.9831 14.5385 58.6046 13.0208 60.7188 13.0208C61.9947 13.0208 62.9977 13.4422 63.7801 14.034L65.3496 12.6304C64.2165 11.5832 62.7099 10.7484 60.7188 10.7484C56.9571 10.7484 53.978 13.3852 53.978 16.7412C53.978 20.0972 56.9571 22.734 60.7188 22.734C62.6839 22.734 64.2165 21.9252 65.4281 20.7813L63.8586 19.3444Z" fill="#030303"></path><path d="M72.2749 20.1589L68.7499 11.092H65.8428L69.3678 20.1589C67.8872 20.3013 66.8582 21.1621 66.8582 22.4795C66.8582 23.9452 67.9392 24.8844 69.4458 24.8844C70.9524 24.8844 72.0334 23.9452 72.0334 22.4795C72.0334 21.1621 70.9784 20.3013 72.2749 20.1589ZM69.4458 23.2792C68.9546 23.2792 68.6166 22.9672 68.6166 22.4795C68.6166 21.9918 68.9546 21.6798 69.4458 21.6798C69.937 21.6798 70.275 21.9918 70.275 22.4795C70.275 22.9672 69.937 23.2792 69.4458 23.2792Z" fill="#030303"></path><path d="M83.4735 11.0136H74.329V22.3995H83.9167V20.1589H77.1082V17.5937H82.9022V15.3531H77.1082V13.257H83.4735V11.0136Z" fill="#030303"></path><path d="M92.7937 11.0136H85.834V22.3995H95.4217V20.1589H88.6132V11.0136H92.7937Z" fill="#030303"></path><path d="M101.074 11.0136L96.229 20.0845L91.384 11.0136H94.498L96.229 15.6903L97.96 11.0136H101.074Z" fill="#030303"></path><path d="M38.8359 17.5937C38.8359 15.325 40.5404 13.9113 42.6286 13.9113C44.6912 13.9113 46.4216 15.299 46.4216 17.5937C46.4216 19.8884 44.7172 21.2761 42.6286 21.2761C40.54 21.2761 38.8359 19.8624 38.8359 17.5937ZM43.6423 17.5937C43.6423 16.3255 43.1251 15.4647 42.6286 15.4647C42.1321 15.4647 41.6148 16.3255 41.6148 17.5937C41.6148 18.8619 42.1321 19.7227 42.6286 19.7227C43.1251 19.7227 43.6423 18.8619 43.6423 17.5937Z" fill="#030303"></path><path d="M48.2435 25.1729C46.9936 25.9297 45.487 26.3511 43.7046 26.3511C39.6006 26.3511 36.1276 23.3688 36.1276 18.8619C36.1276 14.355 39.6006 11.3727 43.7046 11.3727C45.487 11.3727 46.9936 11.8221 48.2435 12.5529L47.0839 14.2255C46.1289 13.6337 45.0219 13.1603 43.7566 13.1603C40.8755 13.1603 38.8619 15.4954 38.8619 18.8619C38.8619 22.2284 40.8755 24.5635 43.7566 24.5635C45.0219 24.5635 46.1289 24.0758 47.0839 23.484L48.2435 25.1729Z" fill="#030303"></path><path d="M30.4048 24.714C29.6937 25.5488 28.5341 26.3511 26.695 26.3511C23.0336 26.3511 19.9141 23.5112 19.9141 18.8619C19.9141 14.2126 23.0336 11.3727 26.695 11.3727C28.5341 11.3727 29.6937 12.175 30.4048 12.9838L28.9712 14.281C28.4287 13.7845 27.6961 13.1603 26.721 13.1603C24.3601 13.1603 22.6816 15.273 22.6816 18.8619C22.6816 22.4508 24.3601 24.5635 26.721 24.5635C27.6961 24.5635 28.4287 23.9421 28.9712 23.4277L30.4048 24.714Z" fill="#030303"></path><path d="M17.4309 0H6.2627V22.3995H17.4309V20.1589H8.99895V12.7291H16.6713V10.4857H8.99895V2.24059H17.4309V0Z" fill="#030303"></path><path d="M99.5599 1.48831C98.4268 0.549133 96.9462 0 95.1638 0C91.0598 0 77.1602 0.354335 77.1602 0.354335V2.59492C77.1602 2.59492 89.2766 2.4245 93.3806 3.70044C93.8462 3.84285 94.0384 4.38531 94.0384 4.90268V22.3995H96.8176V4.90268C96.8176 3.10913 95.893 2.19594 95.1638 2.19594C94.4346 2.19594 93.6522 2.64693 93.1894 3.0195L92.2472 1.63037C92.9324 1.0921 94.0134 0.641113 95.1638 0.641113C96.9462 0.641113 98.4268 1.48831 99.5599 2.42749" fill="#FF9900"></path><path d="M99.5599 2.42749C99.8467 2.68412 100.107 2.96973 100.342 3.27838C100.86 3.96357 101.214 4.75272 101.378 5.61353C101.482 6.1309 101.456 6.64828 101.327 7.16565C100.931 8.7699 99.634 10.1576 97.8776 10.9664C95.5325 12.0656 92.5534 12.1696 89.8339 11.5258C88.584 11.2389 87.4128 10.7078 86.4318 9.92506C85.8372 9.44329 85.3466 8.85758 84.9819 8.2208C84.2252 6.89622 84.0048 5.38959 84.3428 3.93393C84.5995 2.86431 85.2236 1.87309 86.1172 1.14227C88.0823 -0.461981 90.7233 -0.383594 92.9324 1.63037L93.1894 3.0195C93.6522 2.64693 94.4346 2.19594 95.1638 2.19594C95.893 2.19594 96.8176 3.10913 96.8176 4.90268V22.3995H94.0384V4.90268C94.0384 4.38531 93.8462 3.84285 93.3806 3.70044C89.2766 2.4245 77.1602 2.59492 77.1602 2.59492V0.354335C77.1602 0.354335 91.0598 0 95.1638 0C96.9462 0 98.4268 0.549133 99.5599 1.48831" fill="#FF9900"></path><path d="M51.1094 11.0136H49.1929V22.3995H51.972V17.0736C51.972 15.3531 52.8966 14.6679 53.679 14.355C54.4614 14.0421 55.4364 13.9113 56.4114 13.9113V11.2721C55.0839 11.3727 53.8864 11.6063 52.8182 12.0376L51.1094 11.0136Z" fill="#030303"></path></g><defs><clipPath id="clip0_406_3037"><rect width="101.456" height="26.3511" fill="white" transform="translate(0 0.354309)"></rect></clipPath></defs></svg>