<svg width="40" height="40" viewBox="0 0 40 40" fill="none" xmlns="http://www.w3.org/2000/svg">
<circle cx="20" cy="20" r="20" fill="white"/>
<path d="M20 40C31.0457 40 40 31.0457 40 20C40 8.9543 31.0457 0 20 0C8.9543 0 0 8.9543 0 20C0 31.0457 8.9543 40 20 40Z" fill="#1C1C1C"/>
<path d="M20 38C30.035 38 38.2 29.835 38.2 19.8C38.2 9.765 30.035 1.6 20 1.6C9.965 1.6 1.8 9.765 1.8 19.8C1.8 29.835 9.965 38 20 38Z" fill="white"/>
<path d="M19.824 1.8C9.859 1.8 1.8 9.859 1.8 19.824H19.824V1.8Z" fill="#3874B4"/>
<path d="M37.848 19.824C37.848 9.859 29.789 1.8 19.824 1.8V19.824H37.848Z" fill="#2195EE"/>
<path d="M19.824 37.848C29.789 37.848 37.848 29.789 37.848 19.824H19.824V37.848Z" fill="#3874B4"/>
<path d="M1.8 19.824C1.8 29.789 9.859 37.848 19.824 37.848V19.824H1.8Z" fill="#2195EE"/>
<path d="M20 31.2C26.1856 31.2 31.2 26.1856 31.2 20C31.2 13.8144 26.1856 8.8 20 8.8C13.8144 8.8 8.8 13.8144 8.8 20C8.8 26.1856 13.8144 31.2 20 31.2Z" fill="#1C1C1C"/>
<path d="M20 29.8C25.412 29.8 29.8 25.412 29.8 20C29.8 14.588 25.412 10.2 20 10.2C14.588 10.2 10.2 14.588 10.2 20C10.2 25.412 14.588 29.8 20 29.8Z" fill="white"/>
<path d="M11.664 16.92V14.652H14.124V12.384H16.092V14.652H18.552V16.92H16.092V23.796C16.092 24.66 16.596 25.164 17.532 25.164C17.844 25.164 18.156 25.128 18.468 25.02V27.024C17.928 27.132 17.352 27.168 16.74 27.168C14.832 27.168 13.5 25.92 13.5 23.652V16.92H11.664Z" fill="#1C1C1C"/>
<path d="M25.776 20.304C25.776 22.068 24.84 23.004 23.22 23.004C21.6 23.004 20.664 22.068 20.664 20.304V15.3C20.664 13.536 21.6 12.6 23.22 12.6C24.84 12.6 25.776 13.536 25.776 15.3V20.304ZM21.996 20.304C21.996 21.384 22.428 22.032 23.22 22.032C24.012 22.032 24.444 21.384 24.444 20.304V15.3C24.444 14.22 24.012 13.572 23.22 13.572C22.428 13.572 21.996 14.22 21.996 15.3V20.304Z" fill="#1C1C1C"/>
<path d="M26.496 27.396L27.504 28.692C26.748 29.376 25.704 29.88 24.408 29.88C21.564 29.88 19.332 28.008 19.332 24.48C19.332 20.952 21.564 19.08 24.408 19.08C25.704 19.08 26.748 19.584 27.504 20.268L26.496 21.564C26.028 21.168 25.308 20.772 24.444 20.772C22.716 20.772 21.564 21.996 21.564 24.48C21.564 26.964 22.716 28.188 24.444 28.188C25.308 28.188 26.028 27.792 26.496 27.396Z" fill="#1C1C1C"/>
</svg>
