<svg xmlns="http://www.w3.org/2000/svg" width="90" height="31" viewBox="0 0 90 31" fill="none"><g clip-path="url(#clip0_406_3029)"><path d="M37.4912 30.2796V16.7317L44.8239 30.2796H50.047L42.6644 16.656L49.7712 0.755859H44.573L39.9255 10.9572L35.253 0.755859H30.054L37.1608 16.656L29.7782 30.2796H37.4912Z" fill="#262626"></path><path d="M68.5369 30.2796H62.9099V0.755859H68.5369V30.2796Z" fill="#262626"></path><path d="M72.0396 23.366C72.0396 27.6896 75.3138 31.0354 80.7061 31.0354C84.3411 31.0354 86.9536 29.5697 88.3571 26.6886L84.8821 25.3398C84.2173 26.8315 82.8388 27.5642 80.7311 27.5642C78.1436 27.5642 76.5491 25.7956 76.5491 23.0177V22.2592H88.6558V20.1773C88.6558 14.819 85.2066 10.0232 80.5266 10.0232C75.8216 10.0232 72.0396 14.2494 72.0396 20.0776V23.366ZM80.5266 13.9174C82.4066 13.9174 84.1111 15.3644 84.6061 17.618H76.5491C77.0191 15.2638 78.4976 13.9174 80.5266 13.9174Z" fill="#262626"></path><path d="M22.0326 21.0315C22.0326 23.2201 20.7303 24.3428 18.9868 24.3428C17.2183 24.3428 15.941 23.2461 15.941 21.0315V10.1528H11.543V21.434C11.543 25.043 13.9315 27.5122 17.4715 27.5122C19.1653 27.5122 20.657 26.8554 21.8265 25.5996L23.471 26.9224C22.0053 28.5928 19.9234 29.7672 17.4715 29.7672C12.4431 29.7672 8.78313 26.3392 8.78313 21.434V10.1528H4.38525V7.48915H15.941V0.755859H20.339V7.48915H23.974V10.1528H20.339V20.0722C20.339 20.4472 20.364 20.7438 20.364 20.9531C20.438 21.3281 20.6172 21.5831 20.9095 21.789C20.7825 21.5797 20.6805 21.3443 20.6046 21.0828L22.0326 21.0315Z" fill="#262626"></path><path d="M22.0229 21.0305C21.947 20.769 21.845 20.5336 21.718 20.3233C21.0202 21.0344 20.339 21.5831 20.339 21.5831V20.0712C20.339 12.3998 25.9919 7.48813 32.2219 7.48813C38.4519 7.48813 44.1048 12.3998 44.1048 20.0712C44.1048 27.7426 38.4519 32.6543 32.2219 32.6543C28.5369 32.6543 25.3379 31.0598 23.4704 28.5648C22.6104 30.0305 20.9059 31.0855 18.9864 31.0855C17.2179 31.0855 15.9406 29.9888 15.9406 27.7742V17.618C15.9406 15.4294 17.2429 14.3067 18.9864 14.3067C20.7549 14.3067 22.0322 15.4034 22.0322 17.618V21.0305H22.0229ZM32.2219 29.7663C36.8444 29.7663 40.7194 25.4168 40.7194 20.0712C40.7194 14.7256 36.8444 10.3761 32.2219 10.3761C27.5994 10.3761 23.7244 14.7256 23.7244 20.0712C23.7244 25.4168 27.5994 29.7663 32.2219 29.7663Z" fill="#262626"></path><path d="M22.0229 21.0305C20.6046 21.0828 20.6805 21.3443 20.7825 21.5797C20.9095 21.789 20.438 21.3281 20.364 20.9531C20.364 20.7438 20.339 20.4472 20.339 20.0722V10.1528H23.974V7.48915H20.339V0.755859H15.941V7.48915H8.78313V10.1528H11.543V21.434C11.543 26.3392 12.4431 29.7672 17.4715 29.7672C19.9234 29.7672 22.0053 28.5928 23.471 26.9224L21.8265 25.5996C20.657 26.8554 19.1653 27.5122 17.4715 27.5122C13.9315 27.5122 15.941 25.043 15.941 21.434V10.1528V21.0315C15.941 23.2461 17.2183 24.3428 18.9868 24.3428C20.7303 24.3428 22.0326 23.2201 22.0326 21.0315V21.0305Z" fill="#262626"></path><path d="M57.6533 0.755859H53.2554V30.2796H57.6533V0.755859Z" fill="#262626"></path><path d="M15.941 17.618V27.7742C15.9406 29.9888 17.2179 31.0855 18.9864 31.0855C20.9059 31.0855 22.6104 30.0305 23.4704 28.5648C25.3379 31.0598 28.5369 32.6543 32.2219 32.6543C38.4519 32.6543 44.1048 27.7426 44.1048 20.0712C44.1048 12.3998 38.4519 7.48813 32.2219 7.48813C25.9919 7.48813 20.339 12.3998 20.339 20.0712V21.5831C20.339 21.5831 21.0202 21.0344 21.718 20.3233C22.0322 15.4034 20.7549 14.3067 18.9864 14.3067C17.2429 14.3067 15.941 15.4294 15.941 17.618ZM32.2219 29.7663C27.5994 29.7663 23.7244 25.4168 23.7244 20.0712C23.7244 14.7256 27.5994 10.3761 32.2219 10.3761C36.8444 10.3761 40.7194 14.7256 40.7194 20.0712C40.7194 25.4168 36.8444 29.7663 32.2219 29.7663Z" fill="#262626"></path></g><defs><clipPath id="clip0_406_3029"><rect width="84.2705" height="30.2796" fill="white" transform="translate(4.38525 0.755859)"></rect></clipPath></defs></svg>