<svg width="40" height="40" viewBox="0 0 40 40" fill="none" xmlns="http://www.w3.org/2000/svg">
<rect width="40" height="40" rx="12" fill="#2563EB"/>
<path d="M19.584 8.79999H25.044V26.8H19.584V8.79999Z" fill="white"/>
<path d="M11.9541 15.6C11.9541 12.36 14.1141 10.08 17.6741 10.08C21.2341 10.08 23.3941 12.36 23.3941 15.6V18.12C23.3941 21.36 21.2341 23.64 17.6741 23.64C14.1141 23.64 11.9541 21.36 11.9541 18.12V15.6ZM17.6741 21.84C19.9541 21.84 20.9141 20.28 20.9141 17.92V15.84C20.9141 13.48 19.9541 11.92 17.6741 11.92C15.3941 11.92 14.4341 13.48 14.4341 15.84V17.92C14.4341 20.28 15.3941 21.84 17.6741 21.84Z" fill="white"/>
</svg>
