<svg xmlns="http://www.w3.org/2000/svg" width="112" height="19" viewBox="0 0 112 19" fill="none"><g clip-path="url(#clip0_406_3034)"><path d="M0 0.0527344H5.32832L10.0504 18.5723H4.72204L0 0.0527344Z" fill="#262626"></path><path d="M12.4431 0.0527344H17.7714L13.0493 18.5723H7.72098L12.4431 0.0527344Z" fill="#262626"></path><path d="M15.8459 0.0527344H26.3986V4.1895L21.1703 4.1895V18.5723H15.8459V0.0527344Z" fill="#262626"></path><path d="M43.0805 15.617C43.0805 17.5029 41.7915 18.5723 39.9926 18.5723C38.1678 18.5723 36.9047 17.477 36.9047 15.617V5.59092H31.5764V15.9754C31.5764 19.8613 34.2526 22.0918 38.5262 22.0918C40.351 22.0918 41.9779 21.6086 43.2669 20.5392L44.8938 21.9427C43.2928 23.7416 40.9278 24.9687 38.5262 24.9687C32.969 24.9687 29.0831 21.5779 29.0831 15.9754V5.59092H23.7548V1.78206H43.0805V5.59092H36.9047V14.6153C36.9047 15.0458 36.9306 15.3789 36.9306 15.5399C37.0088 15.9403 37.2128 16.2215 37.5308 16.4255C37.3779 16.1956 37.2764 15.9398 37.1982 15.6586L37.1982 15.6406C38.6088 14.0918 38.9268 13.2059 38.9268 12.3459C38.9268 9.98089 37.102 8.48417 34.661 8.48417C32.6847 8.48417 31.0578 9.57949 30.131 10.957L28.3843 9.88755C29.6733 8.16686 31.876 6.82582 34.661 6.82582C38.4233 6.82582 41.2559 9.37303 41.2559 13.511C41.2559 14.6322 40.8512 15.5911 40.1569 16.3982C41.8521 16.1683 43.0805 14.8032 43.0805 13.064V9.42512H48.4088V22.0918H43.0805V15.617Z" fill="#262626"></path><path d="M43.0805 13.064C41.2559 13.064 39.5847 14.5348 38.9268 15.6406L37.1982 15.6586C37.2764 15.9398 37.3779 16.1956 37.5308 16.4255C37.2128 16.2215 37.0088 15.9403 36.9306 15.5399C36.9306 15.3789 36.9047 15.0458 36.9047 14.6153V5.59092H43.0805V9.42512V13.064ZM28.3843 9.88755C30.131 10.957 32.6847 8.48417 34.661 8.48417C37.102 8.48417 38.9268 9.98089 38.9268 12.3459C38.9268 13.2059 38.6088 14.0918 37.1982 15.6406L40.1569 16.3982C40.8512 15.5911 41.2559 14.6322 41.2559 13.511C41.2559 9.37303 38.4233 6.82582 34.661 6.82582C31.876 6.82582 29.6733 8.16686 28.3843 9.88755Z" fill="#262626"></path><path d="M66.0125 18.5723H52.417V14.4355L62.7238 0.0527344H68.8996L58.5928 14.4355H66.0125V18.5723Z" fill="#262626"></path><path d="M79.5297 18.5723H75.5325V1.78206H70.2041V18.5723H66.2069V22.0918H79.5297V18.5723Z" fill="#262626"></path><path d="M96.6578 18.5723H83.0623V14.4355L93.3691 0.0527344H99.5449L89.2381 14.4355H96.6578V18.5723Z" fill="#262626"></path><path d="M109.954 13.363C109.954 16.9234 107.563 18.9859 104.289 18.9859C101.015 18.9859 98.6241 16.9234 98.6241 13.363C98.6241 9.80257 101.015 7.74011 104.289 7.74011C107.563 7.74011 109.954 9.80257 109.954 13.363ZM106.606 13.363C106.606 11.0721 105.653 9.83108 104.289 9.83108C102.925 9.83108 101.973 11.0721 101.973 13.363C101.973 15.6539 102.925 16.8949 104.289 16.8949C105.653 16.8949 106.606 15.6539 106.606 13.363Z" fill="#262626"></path></g><defs><clipPath id="clip0_406_3034"><rect width="111.733" height="24.916" fill="white" transform="translate(0 0.0527344)"></rect></clipPath></defs></svg>