<svg xmlns="http://www.w3.org/2000/svg" width="91" height="28" viewBox="0 0 91 28" fill="none"><path d="M78.0791 27.5625H82.4766V15.2812C82.4766 13.0625 83.4375 12.0312 85.3438 12.0312C86.625 12.0312 87.5156 12.375 88.0625 12.6562L89.1562 9.59375C88.4375 9.25 87.3125 8.90625 85.7812 8.90625C84.3438 8.90625 82.875 9.4375 81.7188 10.75C80.2188 12.4375 79.5625 14.1875 79.5625 16.5312V27.5625H78.0791ZM76.7188 27.5625H72.3213V8.0625H76.7188V27.5625Z" fill="#262626"></path><path d="M65.4375 27.5625H60.9375L56.8438 16.5312L52.7188 27.5625H48.2188L54.7812 8.0625H58.875L65.4375 27.5625Z" fill="#262626"></path><path d="M44.4062 20.3125C44.4062 22.0938 43.4688 23.0312 41.8438 23.0312C40.2188 23.0312 39.2812 22.0938 39.2812 20.3125V15.3125C39.2812 13.5312 40.2188 12.625 41.8438 12.625C43.4688 12.625 44.4062 13.5312 44.4062 15.3125V20.3125ZM40.6094 20.3125C40.6094 21.375 41.0625 22.0625 41.8438 22.0625C42.625 22.0625 43.0781 21.375 43.0781 20.3125V15.3125C43.0781 14.2188 42.625 13.5625 41.8438 13.5625C41.0625 13.5625 40.6094 14.2188 40.6094 15.3125V20.3125Z" fill="#262626"></path><path d="M36.1875 27.5625H31.7891V8.0625H36.1875V27.5625Z" fill="#262626"></path><path d="M28.0938 27.5625H23.6953V15.2812C23.6953 13.0625 24.6562 12.0312 26.5625 12.0312C27.8438 12.0312 28.7344 12.375 29.2812 12.6562L30.375 9.59375C29.6562 9.25 28.5312 8.90625 27 8.90625C25.5625 8.90625 24.0938 9.4375 22.9375 10.75C21.4375 12.4375 20.7812 14.1875 20.7812 16.5312V27.5625H19.2979V27.5625H14.9004V8.0625H19.2979V27.5625H20.7812V27.5625H22.2656V27.5625H23.6953V27.5625H28.0938V27.5625Z" fill="#262626"></path><path d="M11.625 0.5625H0V5.15625H4.5V27.5625H9.125V5.15625H11.625V0.5625Z" fill="#F22F46"></path></svg>