<svg xmlns="http://www.w3.org/2000/svg" width="24" height="24" viewBox="0 0 24 24" fill="none" stroke="currentColor" stroke-width="2" stroke-linecap="round" stroke-linejoin="round" class="lucide lucide-flower-2"><path d="M12 5a3 3 0 1 1 3 3m-3-3a3 3 0 1 0-3 3m3-3v1"/><path d="M12 8c0 1-1.6 3-3 3h-1"/><path d="M12 8c0 1 1.6 3 3 3h1"/><path d="M12 14v-2"/><path d="M12 14c-1 0-3-1.6-3-3v-1"/><path d="M12 14c1 0 3-1.6 3-3v-1"/><path d="m8 16-.81 1.21a2 2 0 0 0 1.62 3.12h6.38a2 2 0 0 0 1.62-3.12L16 16"/><path d="M12 16v4"/></svg>
