<svg xmlns="http://www.w3.org/2000/svg" width="24" height="24" viewBox="0 0 24 24" fill="none" stroke="currentColor" stroke-width="2" stroke-linecap="round" stroke-linejoin="round" class="lucide lucide-webhook"><path d="M18 16.99V16.995"/><path d="M13.99 15.89C14.19 14.85 14.83 13.93 15.78 13.33C17.39 12.33 19.33 12.78 20.33 14.39C21.33 16 20.88 17.94 19.27 18.94C18.32 19.54 17.26 19.74 16.3 19.43"/><path d="M16.3 19.43C15.34 19.12 14.54 18.43 14.04 17.5C13.54 16.57 13.4 15.5 13.68 14.5"/><path d="M13.68 14.5C13.96 13.5 14.57 12.63 15.42 12.04C16.88 11.03 18.81 11.3 19.82 12.76C20.83 14.22 20.56 16.15 19.1 17.16"/><path d="M8.01 15.89C7.81 14.85 7.17 13.93 6.22 13.33C4.61 12.33 2.67 12.78 1.67 14.39C0.67 16 1.12 17.94 2.73 18.94C3.68 19.54 4.74 19.74 5.7 19.43"/><path d="M5.7 19.43C6.66 19.12 7.46 18.43 7.96 17.5C8.46 16.57 8.6 15.5 8.32 14.5"/><path d="M8.32 14.5C8.04 13.5 7.43 12.63 6.58 12.04C5.12 11.03 3.19 11.3 2.18 12.76C1.17 14.22 1.44 16.15 2.9 17.16"/><path d="M12 10.15V4.15C12 3.05 12.9 2.15 14 2.15C15.1 2.15 16 3.05 16 4.15V10.15"/><path d="M12 10.15C10.9 10.15 10 9.25 10 8.15C10 7.05 10.9 6.15 12 6.15C13.1 6.15 14 7.05 14 8.15C14 9.25 13.1 10.15 12 10.15Z"/></svg>
