<svg xmlns="http://www.w3.org/2000/svg" width="24" height="24" viewBox="0 0 24 24" fill="none" stroke="currentColor" stroke-width="2" stroke-linecap="round" stroke-linejoin="round" class="lucide lucide-podcast"><path d="M16.5 12c0-1.8-1.5-3.3-3.3-3.3"/><path d="M16.5 12c0 1.8 1.5 3.3 3.3 3.3"/><path d="M12 18.7a6.7 6.7 0 0 1-6.7-6.7v-1.3a6.7 6.7 0 0 1 13.4 0v1.3a6.7 6.7 0 0 1-6.7 6.7Z"/><path d="M8.7 10.7a3.3 3.3 0 0-1 0 4.6"/><path d="M12 11.4v8.3"/><path d="M12 19.7a2.7 2.7 0 0 1-2.7-2.7v-1.3a2.7 2.7 0 0 1 5.4 0v1.3a2.7 2.7 0 0 1-2.7 2.7Z"/></svg>
